<svg width="433.16001586914064" height="106.12557454133565" viewBox="0 0 370.5 90.77367237756184" class="css-1j8o68f"><defs id="SvgjsDefs1389"></defs><g id="SvgjsG1390" featurekey="symbolFeature-0" transform="matrix(0.9722022778870265,0,0,0.9722022778870265,-4.8604319117209,-3.0591694031613184)" fill="#3dd2cc"><path xmlns="http://www.w3.org/2000/svg" d="M65.369,18.946c-7.581,7.581-8.215,15.848-5.816,21.288c0.223,0.502,0.184,1.118-0.309,1.554L19.353,77.234  c-3.376,3-3.221,6.57,0.082,9.873c3.303,3.304,6.872,3.457,9.871,0.082l35.448-39.893c0.438-0.491,1.051-0.529,1.555-0.308  c5.439,2.397,13.705,1.763,21.287-5.817c8.01-8.009,9.946-19.702,3.711-25.938C85.07,8.998,73.379,10.937,65.369,18.946z"></path><path xmlns="http://www.w3.org/2000/svg" d="M34.412,46.546c0.46-0.299,1.037-0.321,1.474,0.171l5.617,6.313l6.57-5.837l-6.695-5.957  c-0.491-0.438-0.47-1.015-0.17-1.474c3.543-5.437,1.646-11.108-3.436-15.376L21.471,11.021c-1.066-0.867-2.132-0.93-3.061-0.001  c-0.932,0.932-0.93,2.134-0.001,3.063l13.49,13.487c0.982,0.984,0.982,2.25,0,3.232l-0.074,0.075c-0.982,0.981-2.25,0.981-3.233,0  L15.104,17.388c-0.93-0.929-2.132-0.93-3.063,0.001c-0.931,0.931-0.93,2.133,0.001,3.061l13.487,13.49  c0.984,0.983,0.984,2.25,0,3.231l-0.072,0.075c-0.982,0.981-2.25,0.981-3.233-0.001L8.735,23.756c-0.93-0.929-2.132-0.931-3.062,0  c-0.93,0.93-0.866,1.995,0.001,3.061l13.365,16.301C23.308,48.201,28.975,50.09,34.412,46.546z"></path><path xmlns="http://www.w3.org/2000/svg" d="M81.844,77.241L59.965,57.773l-7.117,8.009l19.047,21.407c2.998,3.375,6.565,3.217,9.866-0.084  C85.063,83.809,85.217,80.24,81.844,77.241z"></path></g><g id="SvgjsG1391" featurekey="nameFeature-0" transform="matrix(1.447078207009941,0,0,1.447078207009941,101.63285506113147,-13.949833032349387)" fill="#122d42"><path d="M8.72 14.559999999999999 l0 9.12 q1.24 -0.72 2.8 -1 q1.16 -0.2 2.88 -0.2 l5.12 0 q2.08 0 3.26 -1.04 t1.18 -3.08 q0 -3.8 -4.44 -3.8 l-10.8 0 z M8.72 28.119999999999997 l0 7.52 l11.24 0 q1.32 0 2.52 -0.48 q1.32 -0.48 2.08 -1.4 q0.88 -1.08 0.88 -2.48 q0 -2.4 -1.88 -3.48 q-1.48 -0.88 -4.04 -0.88 l-5.12 0 q-3.44 0 -5.68 1.2 z M29.76 31.84 q0 2.8 -1.56 4.76 q-1.36 1.72 -3.84 2.6 q-2.2 0.8 -4.84 0.8 l-15.12 0 l0 -29.84 l15.12 0 q2.56 0 4.54 0.96 t3.1 2.76 q1.16 1.88 1.16 4.44 q0 1.96 -0.7 3.5 t-1.98 2.38 q1.72 0.8 2.84 2.64 q1.28 2.12 1.28 5 z M46.28 13.32 l-1.64 -3.68 l4.8 0 l14.36 30.36 l-4.88 0 l-1.96 -4.36 l-9.08 0 q-2.56 0 -4.6 0.48 q-1.8 0.44 -3 1.16 q-1.08 0.64 -1.44 1.32 l-0.76 1.4 l-4.72 0 z M49.480000000000004 31.240000000000002 l5.52 0 l-6.52 -12.6 l-6.6 14.28 q0.88 -0.76 2.68 -1.2 q2.04 -0.48 4.92 -0.48 z M91.6 14.559999999999999 l-10.52 0 l0 25.44 l-4.24 0 l0 -25.44 l-10.64 0 l0 -4.4 l25.4 0 l0 4.4 z M101.56 28.04 l0 7.6 l18.4 0 l0 4.36 l-22.76 0 l0 -29.84 l21 0 l0 4.4 l-16.64 0 l0 9.04 q1.24 -0.72 2.76 -0.96 q1.12 -0.2 2.88 -0.2 l6.52 0 l0 4.44 l-6.52 0 q-1.64 0 -2.88 0.2 q-1.52 0.28 -2.76 0.96 z M136.28 13.32 l-1.64 -3.68 l4.8 0 l14.36 30.36 l-4.88 0 l-1.96 -4.36 l-9.08 0 q-2.56 0 -4.6 0.48 q-1.8 0.44 -3 1.16 q-1.08 0.64 -1.44 1.32 l-0.76 1.4 l-4.72 0 z M139.48000000000002 31.240000000000002 l5.52 0 l-6.52 -12.6 l-6.6 14.28 q0.88 -0.76 2.68 -1.2 q2.04 -0.48 4.92 -0.48 z M172.4 40.68 q-4.2 0 -7.22 -1.46 t-4.6 -4.22 t-1.58 -6.6 l0 -18.24 l4.32 0 l0 18.24 q0 3.84 2.36 5.88 t6.72 2.04 t6.72 -2.04 t2.36 -5.88 l0 -18.24 l4.32 0 l0 18.24 q0 3.84 -1.58 6.6 t-4.6 4.22 t-7.22 1.46 z"></path></g><g id="SvgjsG1392" featurekey="nameFeature-1" transform="matrix(1.1551663160292285,0,0,1.1551663160292285,106.61380064109541,43.8641974185358)" fill="#122d42"><path d="M26.6 14.559999999999999 l-10.52 0 l0 25.44 l-4.24 0 l0 -25.44 l-10.64 0 l0 -4.4 l25.4 0 l0 4.4 z M36.52 26.8 l0 13.2 l-4.32 0 l0 -29.84 l4.32 0 l0 12.24 q1.6 -0.8 3.8 -0.8 q0.8 0 3.88 0.36 q4.32 0.52 5.84 0.52 q2.32 0 4.04 -0.76 l0 -11.56 l4.36 0 l0 29.84 l-4.36 0 l0 -13.88 q-1.72 0.76 -4.04 0.76 q-1.52 0 -5.84 -0.52 q-3.08 -0.36 -3.88 -0.36 q-2.2 0 -3.8 0.8 z M71.52000000000001 40 l-4.28 0 l0 -29.84 l4.28 0 l0 29.84 z M84.64 14.559999999999999 l0 9.12 q1.24 -0.72 2.8 -1 q1.16 -0.2 2.88 -0.2 l5.12 0 q2.08 0 3.26 -1.04 t1.18 -3.08 q0 -3.8 -4.44 -3.8 l-10.8 0 z M84.64 28.119999999999997 l0 7.52 l11.24 0 q1.32 0 2.52 -0.48 q1.32 -0.48 2.08 -1.4 q0.88 -1.08 0.88 -2.48 q0 -2.4 -1.88 -3.48 q-1.48 -0.88 -4.04 -0.88 l-5.12 0 q-3.44 0 -5.68 1.2 z M105.68 31.84 q0 2.8 -1.56 4.76 q-1.36 1.72 -3.84 2.6 q-2.2 0.8 -4.84 0.8 l-15.12 0 l0 -29.84 l15.12 0 q2.56 0 4.54 0.96 t3.1 2.76 q1.16 1.88 1.16 4.44 q0 1.96 -0.7 3.5 t-1.98 2.38 q1.72 0.8 2.84 2.64 q1.28 2.12 1.28 5 z M122.2 13.32 l-1.64 -3.68 l4.8 0 l14.36 30.36 l-4.88 0 l-1.96 -4.36 l-9.08 0 q-2.56 0 -4.6 0.48 q-1.8 0.44 -3 1.16 q-1.08 0.64 -1.44 1.32 l-0.76 1.4 l-4.72 0 z M125.4 31.240000000000002 l5.52 0 l-6.52 -12.6 l-6.6 14.28 q0.88 -0.76 2.68 -1.2 q2.04 -0.48 4.92 -0.48 z M158.32000000000002 40.68 q-4.2 0 -7.22 -1.46 t-4.6 -4.22 t-1.58 -6.6 l0 -18.24 l4.32 0 l0 18.24 q0 3.84 2.36 5.88 t6.72 2.04 t6.72 -2.04 t2.36 -5.88 l0 -18.24 l4.32 0 l0 18.24 q0 3.84 -1.58 6.6 t-4.6 4.22 t-7.22 1.46 z M201.04000000000002 40 l-20.92 0 l0 -29.84 l4.36 0 l0 25.48 l16.56 0 l0 4.36 z M228.44000000000003 14.559999999999999 l-10.52 0 l0 25.44 l-4.24 0 l0 -25.44 l-10.64 0 l0 -4.4 l25.4 0 l0 4.4 z"></path></g></svg>